<?xml version="1.0" encoding="UTF-8" standalone="no"?>
<!DOCTYPE svg PUBLIC "-//W3C//DTD SVG 1.1//EN" "http://www.w3.org/Graphics/SVG/1.1/DTD/svg11.dtd">
<svg width="100%" height="100%" viewBox="0 0 800 800" version="1.1" xmlns="http://www.w3.org/2000/svg" xmlns:xlink="http://www.w3.org/1999/xlink" xml:space="preserve" xmlns:serif="http://www.serif.com/" style="fill-rule:evenodd;clip-rule:evenodd;stroke-linejoin:round;stroke-miterlimit:2;">
    <g transform="matrix(0.8,0,0,0.8,80,80)">
        <path d="M536.208,667.322L570.259,734.153C519.153,760.268 461.283,775 400,775L400,700C449.027,700 495.322,688.214 536.208,667.322ZM249.998,659.811C289.888,682.906 335.565,697.078 384.299,699.595L380.374,774.494C319.453,771.347 262.357,753.632 212.497,724.764L249.998,659.811ZM651.588,563.383L714.485,604.229C682.28,653.698 638.716,695.113 587.503,724.764L550.002,659.811C590.966,636.095 625.816,602.966 651.588,563.383ZM140.189,550.002C163.905,590.966 197.034,625.816 236.617,651.588L195.771,714.485C146.302,682.28 104.887,638.716 75.236,587.503L140.189,550.002ZM25,400L100,400C100,449.027 111.786,495.322 132.678,536.208L65.847,570.259C39.732,519.153 25,461.283 25,400Z" style="fill:rgb(32,176,240);"/>
    </g>
    <g transform="matrix(0.938667,0,0,0.938667,24.5333,24.5333)">
        <path d="M75.236,212.497L140.189,249.998C117.094,289.888 102.922,335.565 100.405,384.299L25.506,380.374C28.653,319.453 46.368,262.357 75.236,212.497ZM212.497,75.236L249.998,140.189C209.034,163.905 174.184,197.034 148.412,236.617L85.515,195.771C117.72,146.302 161.284,104.887 212.497,75.236Z" style="fill:rgb(131,159,171);"/>
    </g>
    <g transform="matrix(0.8,0,0,0.8,80,80)">
        <path d="M699.595,415.701L774.494,419.626C771.347,480.547 753.632,537.643 724.764,587.503L659.811,550.002C682.906,510.112 697.078,464.435 699.595,415.701ZM734.153,229.741C760.268,280.847 775,338.717 775,400L700,400C700,350.973 688.214,304.678 667.322,263.792L734.153,229.741ZM604.229,85.515C653.698,117.72 695.113,161.284 724.764,212.497L659.811,249.998C636.095,209.034 602.966,174.184 563.383,148.412L604.229,85.515ZM419.626,25.506C480.547,28.653 537.643,46.368 587.503,75.236L550.002,140.189C510.112,117.094 464.435,102.922 415.701,100.405L419.626,25.506ZM400,100C378.155,100.035 356.343,102.352 335.009,107.071C310.471,112.5 286.695,121.07 264.283,132.427L263.792,132.678L229.741,65.847C280.847,39.732 338.717,25 400,25L400,100Z" style="fill:rgb(240,177,32);"/>
    </g>
</svg>
